# xmcd
# 
# Track frame offsets:
#     150
#     18904
#     35866
#     54077
#     74297
#     89858
#     106646
#     126708
#     142927
#     158684
#     173713
#     192168
#     207247
# 
# Disc length: 3074
# 
# Revision: 19
# Processed by: cddbd v1.5.2PL0 Copyright (c) Steve Scherf et al.
# Submitted via: fre:ac v1.1beta1pre5
# 
DISCID=b20c000d
DTITLE=P!nk - Beautiful Trauma
DYEAR=2017
DGENRE=Pop
TTITLE0=Beautiful Trauma
TTITLE1=Revenge (feat. Eminem)
TTITLE2=Whatever You Want
TTITLE3=What About Us
TTITLE4=But We Lost It
TTITLE5=Barbies
TTITLE6=Where We Go
TTITLE7=For Now
TTITLE8=Secrets
TTITLE9=Better Life
TTITLE10=I Am Here
TTITLE11=Wild Hearts Can't Be Broken
TTITLE12=You Get My Love
EXTD=\n
EXTT0=
EXTT1=
EXTT2=
EXTT3=
EXTT4=
EXTT5=
EXTT6=
EXTT7=
EXTT8=
EXTT9=
EXTT10=
EXTT11=
EXTT12=
PLAYORDER=
